<svg width="123" height="68" viewBox="0 0 123 68" fill="none" xmlns="http://www.w3.org/2000/svg">
<path d="M5.304 13.536C3.53333 13.536 2.264 14.0907 1.496 15.2C1.368 15.392 1.304 15.552 1.304 15.68C1.304 15.872 1.4 15.968 1.592 15.968C1.76267 15.968 1.92267 15.808 2.072 15.488C2.43467 14.976 2.936 14.72 3.576 14.72C4.23733 14.72 4.74933 14.9333 5.112 15.36C5.496 15.7867 5.688 16.3413 5.688 17.024C5.688 17.7067 5.44267 18.272 4.952 18.72C4.48267 19.168 3.864 19.392 3.096 19.392C2.328 19.392 1.69867 19.1147 1.208 18.56C0.717333 18.0053 0.472 17.2907 0.472 16.416C0.472 15.5413 0.888 14.7413 1.72 14.016C2.552 13.2907 3.736 12.928 5.272 12.928C6.06133 12.928 6.84 13.0453 7.608 13.28L10.872 3.872C11.1707 2.976 11.5013 2.35733 11.864 2.016C12.44 1.504 13.2187 1.248 14.2 1.248L21.976 23.2H23.192V23.712H15.256L14.552 21.76C12.7813 17.6427 10.5947 15.072 7.992 14.048L6.04 19.584C5.82667 20.16 5.72 20.704 5.72 21.216C5.72 22.5387 6.68 23.2 8.6 23.2H9.656V23.712H1.464V23.2C2.104 23.2 2.63733 23.136 3.064 23.008C3.49067 22.8587 3.85333 22.5813 4.152 22.176C4.45067 21.7707 4.67467 21.3973 4.824 21.056C4.97333 20.6933 5.18667 20.128 5.464 19.36L7.384 13.856C6.68 13.6427 5.98667 13.536 5.304 13.536ZM8.184 13.472C10.104 14.176 11.7573 15.6053 13.144 17.76L9.912 8.576L8.184 13.472ZM31.4243 24.32C31.4243 26.048 31.1149 27.5627 30.4963 28.864C30.1549 29.568 29.6429 30.1227 28.9603 30.528C28.2776 30.9547 27.4563 31.168 26.4963 31.168C25.5363 31.168 24.7363 30.8587 24.0963 30.24C23.4563 29.6213 23.1363 28.8747 23.1363 28C23.1363 27.1467 23.3816 26.432 23.8723 25.856C24.3843 25.28 25.0349 24.992 25.8243 24.992C26.6349 24.992 27.2749 25.2267 27.7443 25.696C28.2349 26.1653 28.4803 26.7413 28.4803 27.424C28.4803 28.128 28.2776 28.704 27.8723 29.152C27.4669 29.6 26.9443 29.824 26.3043 29.824C25.6856 29.824 25.1949 29.6107 24.8323 29.184C24.6616 28.864 24.4803 28.704 24.2883 28.704C24.1176 28.704 24.0323 28.8 24.0323 28.992C24.0323 29.12 24.0963 29.28 24.2243 29.472C24.7789 30.2187 25.5363 30.592 26.4963 30.592C27.4776 30.592 28.2456 30.2507 28.8003 29.568C29.3763 28.9067 29.6643 28.0853 29.6643 27.104C29.6643 26.1227 29.3123 25.2907 28.6083 24.608C27.9256 23.9467 27.0189 23.616 25.8883 23.616C25.7176 23.616 25.5469 23.6267 25.3763 23.648V9.504H23.1043V8.992H25.0243C27.3496 8.992 29.4829 8.78933 31.4243 8.384V24.32ZM28.2563 7.04C27.4243 7.04 26.7096 6.752 26.1123 6.176C25.5363 5.57867 25.2483 4.864 25.2483 4.032C25.2483 3.17867 25.5363 2.464 26.1123 1.888C26.7096 1.29067 27.4349 0.991999 28.2883 0.991999C29.1416 0.991999 29.8563 1.29067 30.4323 1.888C31.0083 2.464 31.2963 3.17867 31.2963 4.032C31.2963 4.864 30.9976 5.57867 30.4003 6.176C29.8243 6.752 29.1096 7.04 28.2563 7.04ZM51.7987 23.2H53.7828V23.712H45.7508V21.216H45.5908C44.7588 23.3067 43.2654 24.352 41.1108 24.352C39.2761 24.352 37.9854 23.7867 37.2388 22.656C36.4921 21.504 36.1188 19.872 36.1188 17.76V9.504H33.8468V8.992H35.7668C38.0068 8.992 40.0974 8.78933 42.0388 8.384V16.416C42.0388 18.5707 42.1348 20.128 42.3268 21.088C42.5188 22.0267 42.9454 22.496 43.6068 22.496C44.3534 22.496 44.9188 21.7707 45.3028 20.32C45.6868 18.848 45.8788 17.1733 45.8788 15.296V9.536H43.6068V8.992H45.5268C47.7668 8.992 49.8574 8.78933 51.7987 8.384V23.2ZM55.5018 14.656C55.5018 12.6507 56.2164 11.104 57.6458 10.016C59.0751 8.928 60.8138 8.384 62.8618 8.384C63.5231 8.384 64.1738 8.448 64.8138 8.576C64.2804 7.97867 64.0138 7.25333 64.0138 6.4C64.0138 5.54667 64.3018 4.81067 64.8778 4.192C65.4751 3.57333 66.1898 3.264 67.0218 3.264C67.8751 3.264 68.5791 3.50933 69.1338 4C69.6884 4.49067 69.9658 5.12 69.9658 5.888C69.9658 6.656 69.7418 7.28533 69.2938 7.776C68.8458 8.24533 68.2804 8.48 67.5978 8.48C66.9364 8.48 66.3818 8.288 65.9338 7.904C65.5071 7.49867 65.2938 6.98667 65.2938 6.368C65.2938 5.74933 65.5071 5.25867 65.9338 4.896C66.2538 4.74667 66.4138 4.576 66.4138 4.384C66.4138 4.192 66.3178 4.096 66.1258 4.096C65.9978 4.096 65.8378 4.16 65.6458 4.288C64.9418 4.82133 64.5898 5.536 64.5898 6.432C64.5898 7.56267 65.2404 8.45867 66.5418 9.12C68.9951 10.1867 70.2218 12.032 70.2218 14.656C70.2218 16.6613 69.5071 18.208 68.0778 19.296C66.6484 20.384 64.9098 20.928 62.8618 20.928C61.4538 20.928 60.1951 20.6827 59.0858 20.192C57.7204 20.768 57.0378 21.3653 57.0378 21.984C57.0378 22.4107 57.2084 22.6987 57.5498 22.848C57.8911 22.976 58.4778 23.04 59.3098 23.04C60.1418 23.04 61.4644 22.8267 63.2778 22.4C65.1124 21.9733 66.3178 21.76 66.8938 21.76C68.1311 21.76 69.1124 22.08 69.8378 22.72C70.5631 23.36 70.9258 24.2027 70.9258 25.248C70.9258 26.8907 70.2324 28.288 68.8458 29.44C67.4591 30.592 65.7951 31.168 63.8538 31.168C61.5498 31.168 59.6724 30.2613 58.2218 28.448C57.1764 28.3627 56.3338 27.968 55.6938 27.264C55.0538 26.56 54.7338 25.7067 54.7338 24.704C54.7338 23.7227 55.0538 22.7947 55.6938 21.92C56.3551 21.0453 57.2724 20.352 58.4458 19.84C56.4831 18.7307 55.5018 17.0027 55.5018 14.656ZM62.1258 20.16C62.3391 20.288 62.5844 20.352 62.8618 20.352C63.1391 20.352 63.3738 20.288 63.5658 20.16C63.7791 20.0107 63.9391 19.7867 64.0458 19.488C64.1738 19.168 64.2698 18.8693 64.3338 18.592C64.4191 18.2933 64.4724 17.8773 64.4938 17.344C64.5151 16.8107 64.5258 16.384 64.5258 16.064C64.5471 15.744 64.5578 15.2747 64.5578 14.656C64.5578 14.0373 64.5471 13.568 64.5258 13.248C64.5258 12.928 64.5151 12.5013 64.4938 11.968C64.4724 11.4347 64.4191 11.0293 64.3338 10.752C64.2698 10.4533 64.1738 10.1547 64.0458 9.856C63.9391 9.536 63.7791 9.312 63.5658 9.184C63.3738 9.03467 63.1391 8.96 62.8618 8.96C62.5844 8.96 62.3391 9.03467 62.1258 9.184C61.9338 9.312 61.7738 9.536 61.6458 9.856C61.5391 10.1547 61.4431 10.4533 61.3578 10.752C61.2938 11.0293 61.2511 11.4347 61.2298 11.968C61.2084 12.5013 61.1871 12.928 61.1658 13.248C61.1658 13.568 61.1658 14.0373 61.1658 14.656C61.1658 15.2747 61.1658 15.744 61.1658 16.064C61.1871 16.384 61.2084 16.8107 61.2298 17.344C61.2511 17.8773 61.2938 18.2933 61.3578 18.592C61.4431 18.8693 61.5391 19.168 61.6458 19.488C61.7738 19.7867 61.9338 20.0107 62.1258 20.16ZM66.7018 27.232C66.1044 27.232 64.8458 27.424 62.9258 27.808C61.0058 28.192 59.7044 28.4053 59.0218 28.448C60.2164 29.8773 61.8271 30.592 63.8538 30.592C64.9631 30.592 65.9978 30.368 66.9578 29.92C67.9391 29.4933 68.4298 28.992 68.4298 28.416C68.4298 27.6267 67.8538 27.232 66.7018 27.232ZM82.2528 18.88V15.904C82.1674 15.904 82.0928 15.904 82.0288 15.904C81.0261 15.904 80.1834 16.1813 79.5008 16.736C78.8181 17.2693 78.4768 18.1333 78.4768 19.328C78.4768 20.5013 78.6474 21.3653 78.9888 21.92C79.3301 22.4533 79.7888 22.72 80.3648 22.72C80.9408 22.72 81.3994 22.3147 81.7408 21.504C82.0821 20.6933 82.2528 19.8187 82.2528 18.88ZM88.8768 22.496C89.6874 22.496 90.2101 21.4293 90.4448 19.296L91.0208 19.36C90.6154 22.6667 89.1328 24.32 86.5728 24.32C85.5061 24.32 84.6421 23.968 83.9808 23.264C83.3194 22.5387 82.9461 21.6747 82.8608 20.672H82.6688C82.3701 21.824 81.8688 22.72 81.1648 23.36C80.4608 24 79.3408 24.32 77.8048 24.32C76.2901 24.32 75.0101 23.9893 73.9648 23.328C72.9408 22.6453 72.4288 21.568 72.4288 20.096C72.4288 16.9173 75.7034 15.328 82.2528 15.328V14.272C82.2528 12.2027 81.9968 10.8373 81.4848 10.176C81.2501 9.87733 80.8981 9.61067 80.4288 9.376C79.9808 9.14133 79.4368 9.024 78.7968 9.024C77.5808 9.024 76.5034 9.30133 75.5648 9.856C74.6474 10.4107 74.1888 11.0187 74.1888 11.68C74.1888 11.872 74.2848 11.968 74.4768 11.968C74.6048 11.968 74.6901 11.936 74.7328 11.872C74.7754 11.7867 74.8074 11.712 74.8288 11.648C74.8501 11.5627 74.8714 11.4987 74.8928 11.456C74.9141 11.392 74.9568 11.296 75.0208 11.168C75.1061 11.04 75.2981 10.8693 75.5968 10.656C75.8954 10.4427 76.3008 10.336 76.8128 10.336C77.3248 10.336 77.7621 10.5707 78.1248 11.04C78.5088 11.488 78.7008 12.0427 78.7008 12.704C78.7008 13.3653 78.4554 13.9307 77.9648 14.4C77.4741 14.848 76.8554 15.072 76.1088 15.072C75.3621 15.072 74.7221 14.816 74.1888 14.304C73.6768 13.7707 73.4208 13.1307 73.4208 12.384C73.4208 11.1467 73.9861 10.176 75.1168 9.472C76.2474 8.74667 77.8688 8.384 79.9808 8.384C82.1141 8.384 83.8101 8.66133 85.0688 9.216C86.3274 9.77067 87.1808 10.56 87.6287 11.584C88.0768 12.5867 88.3008 13.9733 88.3008 15.744V21.184C88.3008 22.0587 88.4928 22.496 88.8768 22.496ZM11.64 47.976H11.8C12.1413 47.208 12.6213 46.5893 13.24 46.12C13.8587 45.6293 14.6053 45.384 15.48 45.384C16.376 45.384 17.1333 45.6827 17.752 46.28C18.392 46.856 18.712 47.56 18.712 48.392C18.712 49.224 18.4667 49.9173 17.976 50.472C17.4853 51.0267 16.856 51.304 16.088 51.304C15.32 51.304 14.6907 51.08 14.2 50.632C13.7307 50.184 13.496 49.6293 13.496 48.968C13.496 48.2853 13.688 47.7307 14.072 47.304C14.4773 46.856 14.9787 46.632 15.576 46.632C16.1733 46.632 16.6533 46.8453 17.016 47.272C17.1867 47.592 17.3573 47.752 17.528 47.752C17.72 47.752 17.816 47.656 17.816 47.464C17.816 47.336 17.752 47.176 17.624 46.984C17.112 46.3013 16.3867 45.96 15.448 45.96C12.824 45.96 11.512 48.584 11.512 53.832V60.2H13.912V60.712H3.608V60.2H5.592V46.504H3.32V45.992H5.24C7.56533 45.992 9.69867 45.7893 11.64 45.384V47.976ZM25.706 54.632C25.706 56.5733 25.9407 58.0453 26.41 59.048C26.9007 60.0507 27.786 60.552 29.066 60.552C30.3673 60.552 31.4873 60.136 32.426 59.304C33.386 58.472 34.0047 57.352 34.282 55.944L34.346 55.656L34.922 55.752C34.6233 57.5013 33.8873 58.8667 32.714 59.848C31.5407 60.8293 30.0153 61.32 28.138 61.32C25.3007 61.32 23.1033 60.648 21.546 59.304C19.9887 57.9387 19.21 55.9867 19.21 53.448C19.21 50.9093 19.9567 48.936 21.45 47.528C22.9433 46.0987 24.97 45.384 27.53 45.384C29.6207 45.384 31.3593 45.7787 32.746 46.568C34.154 47.336 34.858 48.5307 34.858 50.152C34.858 51.7733 34.2073 52.9253 32.906 53.608C31.6047 54.2907 29.9087 54.632 27.818 54.632H25.706ZM25.674 51.752V54.056H26.474C27.434 54.056 28.0953 53.736 28.458 53.096C28.842 52.4347 29.034 51.4747 29.034 50.216C29.034 47.3787 28.5327 45.96 27.53 45.96C26.8687 45.96 26.3887 46.344 26.09 47.112C25.8127 47.88 25.674 49.4267 25.674 51.752ZM43.9183 59.016V67.048H46.3183V67.56H35.8863V67.048H37.8703V46.504H35.5983V45.992H37.5182C39.8436 45.992 41.9769 45.7893 43.9183 45.384V48.2H44.0783C44.4836 47.176 45.0383 46.4507 45.7423 46.024C46.4676 45.5973 47.4063 45.384 48.5583 45.384C50.5636 45.384 52.0249 46.12 52.9423 47.592C53.8809 49.064 54.3503 50.9627 54.3503 53.288C54.3503 55.6133 53.8169 57.5333 52.7503 59.048C51.7049 60.5413 50.1796 61.288 48.1743 61.288C46.1903 61.288 44.8249 60.5307 44.0783 59.016H43.9183ZM43.7903 53.32V54.184C43.7903 56.0613 44.0356 57.5227 44.5263 58.568C45.0169 59.592 45.5823 60.104 46.2223 60.104C47.3316 60.104 47.8863 57.8427 47.8863 53.32C47.8863 51.0587 47.7689 49.416 47.5343 48.392C47.3209 47.3467 46.8836 46.824 46.2223 46.824C45.4543 46.824 44.8569 47.496 44.4303 48.84C44.0036 50.184 43.7903 51.6773 43.7903 53.32ZM64.553 59.496C65.3637 59.496 65.8863 58.4293 66.121 56.296L66.697 56.36C66.505 57.9387 66.057 59.1653 65.353 60.04C64.649 60.8933 63.6037 61.32 62.217 61.32C59.3583 61.32 57.929 59.7627 57.929 56.648V46.504H56.265V45.992H56.489C57.4917 45.992 58.7397 45.608 60.233 44.84C60.9797 44.456 61.6623 43.88 62.281 43.112C62.8997 42.344 63.3263 41.4693 63.561 40.488H63.977V45.992H66.953V46.504H63.977V58.184C63.977 59.0587 64.169 59.496 64.553 59.496ZM78.1903 55.88V52.904C78.1049 52.904 78.0303 52.904 77.9663 52.904C76.9636 52.904 76.1209 53.1813 75.4383 53.736C74.7556 54.2693 74.4143 55.1333 74.4143 56.328C74.4143 57.5013 74.5849 58.3653 74.9263 58.92C75.2676 59.4533 75.7263 59.72 76.3023 59.72C76.8783 59.72 77.3369 59.3147 77.6783 58.504C78.0196 57.6933 78.1903 56.8187 78.1903 55.88ZM84.8143 59.496C85.6249 59.496 86.1476 58.4293 86.3823 56.296L86.9583 56.36C86.5529 59.6667 85.0703 61.32 82.5103 61.32C81.4436 61.32 80.5796 60.968 79.9183 60.264C79.2569 59.5387 78.8836 58.6747 78.7983 57.672H78.6063C78.3076 58.824 77.8063 59.72 77.1023 60.36C76.3983 61 75.2783 61.32 73.7423 61.32C72.2276 61.32 70.9476 60.9893 69.9023 60.328C68.8783 59.6453 68.3663 58.568 68.3663 57.096C68.3663 53.9173 71.6409 52.328 78.1903 52.328V51.272C78.1903 49.2027 77.9343 47.8373 77.4223 47.176C77.1876 46.8773 76.8356 46.6107 76.3663 46.376C75.9183 46.1413 75.3743 46.024 74.7343 46.024C73.5183 46.024 72.4409 46.3013 71.5023 46.856C70.5849 47.4107 70.1263 48.0187 70.1263 48.68C70.1263 48.872 70.2223 48.968 70.4143 48.968C70.5423 48.968 70.6276 48.936 70.6703 48.872C70.7129 48.7867 70.7449 48.712 70.7663 48.648C70.7876 48.5627 70.8089 48.4987 70.8303 48.456C70.8516 48.392 70.8943 48.296 70.9583 48.168C71.0436 48.04 71.2356 47.8693 71.5343 47.656C71.8329 47.4427 72.2383 47.336 72.7503 47.336C73.2623 47.336 73.6996 47.5707 74.0623 48.04C74.4463 48.488 74.6383 49.0427 74.6383 49.704C74.6383 50.3653 74.3929 50.9307 73.9023 51.4C73.4116 51.848 72.7929 52.072 72.0463 52.072C71.2996 52.072 70.6596 51.816 70.1263 51.304C69.6143 50.7707 69.3583 50.1307 69.3583 49.384C69.3583 48.1467 69.9236 47.176 71.0543 46.472C72.1849 45.7467 73.8063 45.384 75.9183 45.384C78.0516 45.384 79.7476 45.6613 81.0063 46.216C82.2649 46.7707 83.1183 47.56 83.5662 48.584C84.0143 49.5867 84.2383 50.9733 84.2383 52.744V58.184C84.2383 59.0587 84.4303 59.496 84.8143 59.496ZM89.3108 46.504H87.0388V45.992H88.9588C91.2841 45.992 93.4174 45.7893 95.3588 45.384V48.52H95.5188C96.3508 46.4293 97.8441 45.384 99.9988 45.384C101.833 45.384 103.124 45.96 103.871 47.112C104.617 48.2427 104.991 49.864 104.991 51.976V60.2H106.975V60.712H97.0868V60.2H99.0708V53.32C99.0708 51.144 98.9748 49.5653 98.7828 48.584C98.5908 47.6027 98.1641 47.112 97.5028 47.112C96.7561 47.112 96.1908 47.912 95.8068 49.512C95.4228 51.0907 95.2308 52.84 95.2308 54.76V60.712H87.3268V60.2H89.3108V46.504ZM120.79 47.112C120.534 46.856 120.075 46.6213 119.414 46.408C118.774 46.1733 117.984 46.056 117.046 46.056C116.107 46.056 115.328 46.2693 114.71 46.696C114.091 47.1013 113.782 47.6453 113.782 48.328C113.782 48.9893 114.091 49.576 114.71 50.088C115.328 50.5787 116.075 51.0267 116.95 51.432C117.824 51.816 118.699 52.2427 119.574 52.712C120.47 53.16 121.227 53.736 121.846 54.44C122.464 55.144 122.774 55.944 122.774 56.84C122.774 58.2053 122.07 59.2933 120.662 60.104C119.275 60.9147 117.184 61.32 114.39 61.32C113.131 61.32 111.851 61.096 110.55 60.648C109.888 60.4133 109.344 60.0507 108.918 59.56C108.512 59.048 108.31 58.4187 108.31 57.672C108.31 56.9253 108.555 56.2853 109.046 55.752C109.536 55.1973 110.166 54.92 110.934 54.92C111.702 54.92 112.32 55.144 112.79 55.592C113.259 56.0187 113.494 56.5733 113.494 57.256C113.494 57.9387 113.291 58.4933 112.886 58.92C112.502 59.3253 112.022 59.528 111.446 59.528C110.891 59.528 110.411 59.3253 110.006 58.92C109.963 58.8773 109.931 58.8453 109.91 58.824C109.888 58.7813 109.867 58.7493 109.846 58.728C109.824 58.7067 109.803 58.6853 109.782 58.664C109.696 58.6213 109.622 58.6 109.558 58.6C109.387 58.6 109.302 58.696 109.302 58.888C109.302 59.08 109.462 59.3147 109.782 59.592C110.123 59.8693 110.678 60.1253 111.446 60.36C112.214 60.5947 113.078 60.712 114.038 60.712C115.019 60.712 115.851 60.552 116.534 60.232C117.238 59.8907 117.59 59.4107 117.59 58.792C117.59 58.152 117.28 57.5653 116.662 57.032C116.043 56.4773 115.286 55.976 114.39 55.528C113.515 55.0587 112.63 54.5787 111.734 54.088C110.838 53.5973 110.08 53.0107 109.462 52.328C108.843 51.624 108.534 50.8667 108.534 50.056C108.534 48.712 109.152 47.6027 110.39 46.728C111.648 45.8533 113.6 45.416 116.246 45.416C118.208 45.416 119.68 45.7467 120.662 46.408C121.643 47.048 122.134 47.9013 122.134 48.968C122.134 49.7573 121.888 50.4293 121.398 50.984C120.907 51.5173 120.278 51.784 119.51 51.784C118.763 51.784 118.155 51.56 117.686 51.112C117.216 50.664 116.982 50.1093 116.982 49.448C116.982 48.7653 117.174 48.2107 117.558 47.784C117.942 47.3573 118.422 47.144 118.998 47.144C119.595 47.144 120.022 47.304 120.278 47.624C120.555 47.9227 120.758 48.072 120.886 48.072C121.078 48.072 121.174 47.976 121.174 47.784C121.174 47.592 121.046 47.368 120.79 47.112Z" fill="#202020"/>
</svg>
